<svg width="40" height="40" viewBox="0 0 40 40" fill="none" xmlns="http://www.w3.org/2000/svg">
  <path d="M7 11C7 11 9.5 11 10.5 11C11.5 11 11.625 11.5 12 13C12.375 14.5 12.375 14.5 12.375 14.5M12.375 14.5L15 25C15 25 15.2698 26 16.5 26C17.7302 26 24.9054 26 26.5 26C28.0946 26 28.5 25 28.5 25C28.5 25 30.8073 17.1035 31 16C31.1927 14.8965 31 14.5 29.5 14.5C28 14.5 12.375 14.5 12.375 14.5Z" stroke="currentColor"/>
  <circle cx="17.5" cy="30.5" r="2" stroke="currentColor"/>
  <circle cx="26.5" cy="30.5" r="2" stroke="currentColor"/>
</svg>